<svg width="44" height="44" viewBox="0 0 44 44" fill="none" xmlns="http://www.w3.org/2000/svg">
<path d="M37.2337 6.40211C35.2526 4.36475 32.893 2.74939 30.2924 1.65024C27.6918 0.551085 24.9022 -0.00985622 22.0864 0.000131053C10.2884 0.000131053 0.672865 9.7901 0.672865 21.8021C0.672865 25.6521 1.66683 29.392 3.52513 32.692L0.5 44L11.8442 40.964C14.9774 42.702 18.4995 43.626 22.0864 43.626C33.8844 43.626 43.5 33.836 43.5 21.8241C43.5 15.9941 41.2744 10.5161 37.2337 6.40211ZM22.0864 39.93C18.8884 39.93 15.7553 39.05 13.0111 37.4L12.3628 37.004L5.62111 38.808L7.41457 32.12L6.98241 31.438C5.20568 28.5494 4.26226 25.2104 4.2598 21.8021C4.2598 11.8141 12.2548 3.67412 22.0648 3.67412C26.8186 3.67412 31.2915 5.56612 34.6407 8.99811C36.2991 10.6788 37.6133 12.678 38.5072 14.8796C39.4011 17.0813 39.8569 19.4417 39.8482 21.8241C39.8915 31.812 31.8965 39.93 22.0864 39.93ZM31.8533 26.3781C31.3131 26.1141 28.6769 24.7941 28.2015 24.5961C27.7045 24.4201 27.3588 24.3321 26.9915 24.8601C26.6241 25.4101 25.6085 26.6421 25.306 26.9941C25.0035 27.3681 24.6794 27.4121 24.1392 27.1261C23.599 26.8621 21.8703 26.2681 19.8392 24.4201C18.2402 22.9681 17.1814 21.1861 16.8573 20.6361C16.5548 20.0861 16.8141 19.8001 17.095 19.5141C17.3327 19.2721 17.6352 18.8761 17.8945 18.5681C18.1538 18.2601 18.2618 18.0181 18.4347 17.6661C18.6075 17.2921 18.5211 16.9841 18.3915 16.7201C18.2618 16.4561 17.1814 13.7721 16.7492 12.6721C16.3171 11.6161 15.8633 11.7481 15.5392 11.7261H14.502C14.1347 11.7261 13.5729 11.8581 13.0759 12.4081C12.6005 12.9581 11.2176 14.2781 11.2176 16.9621C11.2176 19.6461 13.1407 22.2421 13.4 22.5941C13.6593 22.9681 17.1814 28.468 22.5402 30.822C23.8151 31.394 24.809 31.724 25.5869 31.966C26.8618 32.384 28.0286 32.318 28.9578 32.186C29.995 32.032 32.1342 30.866 32.5663 29.59C33.0201 28.314 33.0201 27.2361 32.8688 26.9941C32.7176 26.7521 32.3935 26.6421 31.8533 26.3781Z" fill="#476D3B"/>
</svg>
